<svg width="54" height="74" viewBox="0 0 54 74" fill="none" xmlns="http://www.w3.org/2000/svg">
<g clip-path="url(#clip0_7_1402)">
<path d="M4.63179 73.8574L1.99788 65.677H1.93054C1.94051 65.872 1.95548 66.1668 1.97543 66.5614C2.00038 66.9513 2.02282 67.3673 2.04278 67.8095C2.06273 68.2517 2.07271 68.651 2.07271 69.0076V73.8574H0V63.4305H3.1577L5.74672 71.404H5.79161L8.53777 63.4305H11.6955V73.8574H9.53297V68.9221C9.53297 68.594 9.53795 68.216 9.54793 67.7881C9.5629 67.3602 9.58036 66.9536 9.60031 66.5685C9.62026 66.1786 9.63523 65.8862 9.64521 65.6913H9.57786L6.75688 73.8574H4.63179Z" fill="#004589"/>
<path d="M23.2413 63.4305L19.8516 70.8049C19.5473 71.4705 19.2231 72.0435 18.8789 72.5237C18.5347 72.9992 18.0982 73.3653 17.5694 73.622C17.0406 73.874 16.3472 74 15.4892 74C15.2198 74 14.928 73.981 14.6137 73.9429C14.2994 73.9097 14.0076 73.8574 13.7382 73.786V71.8889C13.9877 71.9793 14.257 72.0458 14.5464 72.0886C14.8407 72.1267 15.1176 72.1457 15.377 72.1457C15.7162 72.1457 15.9905 72.091 16.2001 71.9817C16.4096 71.8723 16.5767 71.7249 16.7014 71.5395C16.8261 71.354 16.9309 71.1472 17.0157 70.919L13.2294 63.4305H15.6837L17.7265 67.945C17.7714 68.0401 17.8288 68.1684 17.8986 68.3301C17.9735 68.487 18.0458 68.6487 18.1156 68.8151C18.1905 68.9767 18.2478 69.1194 18.2877 69.243H18.37C18.4099 69.1241 18.4623 68.9815 18.5272 68.8151C18.597 68.6439 18.6693 68.4704 18.7442 68.2944C18.819 68.1138 18.8863 67.9521 18.9462 67.8095L20.8468 63.4305H23.2413Z" fill="#004589"/>
<path d="M32.1756 65.8696C32.1756 66.5685 31.9137 67.1319 31.3899 67.5599C30.8662 67.9878 30.2027 68.2564 29.3995 68.3658V68.4086C30.3972 68.5037 31.1655 68.7675 31.7042 69.2002C32.243 69.6329 32.5124 70.1963 32.5124 70.8905C32.5124 71.4991 32.3378 72.0387 31.9886 72.5094C31.6394 72.9754 31.1231 73.3415 30.4396 73.6077C29.7562 73.8692 28.9107 74 27.903 74C27.0749 74 26.3391 73.9525 25.6956 73.8574C25.0571 73.7575 24.5034 73.6173 24.0344 73.4366V71.5823C24.3537 71.7249 24.7104 71.8485 25.1045 71.9531C25.5036 72.053 25.9076 72.1314 26.3167 72.1885C26.7257 72.2408 27.1049 72.2669 27.454 72.2669C28.4218 72.2669 29.1227 72.1338 29.5567 71.8675C29.9957 71.6013 30.2152 71.2233 30.2152 70.7336C30.2152 70.2343 29.8984 69.8706 29.2649 69.6424C28.6313 69.4142 27.7783 69.3001 26.7058 69.3001H25.6806V67.5741H26.601C27.469 67.5741 28.1425 67.5218 28.6213 67.4172C29.1052 67.3079 29.4419 67.1533 29.6315 66.9536C29.8261 66.7492 29.9233 66.5043 29.9233 66.2191C29.9233 65.8625 29.7562 65.5796 29.422 65.3704C29.0878 65.1564 28.5914 65.0494 27.9329 65.0494C27.3643 65.0494 26.833 65.1279 26.3391 65.2848C25.8453 65.4369 25.3838 65.6414 24.9548 65.8981L23.9447 64.4218C24.3188 64.1888 24.7179 63.9868 25.1419 63.8156C25.5709 63.6444 26.0398 63.5137 26.5486 63.4233C27.0575 63.3282 27.6261 63.2807 28.2547 63.2807C29.0778 63.2807 29.7812 63.3924 30.3648 63.6159C30.9485 63.8394 31.3949 64.146 31.7042 64.5359C32.0185 64.921 32.1756 65.3656 32.1756 65.8696Z" fill="#004589"/>
<path d="M40.8556 73.8574H34.5551V63.4305H40.8556V65.242H36.8748V67.5313H40.5787V69.3428H36.8748V72.0316H40.8556V73.8574Z" fill="#004589"/>
<path d="M43.1453 63.4305H45.233V68.4656C45.233 68.7129 45.228 68.9862 45.218 69.2858C45.213 69.5853 45.203 69.8801 45.1881 70.1701C45.1781 70.4554 45.1681 70.705 45.1581 70.919C45.1481 71.133 45.1382 71.2756 45.1282 71.3469H45.1731L50.2239 63.4305H53V73.8574H50.9348V68.8507C50.9348 68.5845 50.9398 68.2944 50.9497 67.9806C50.9597 67.6668 50.9722 67.3625 50.9872 67.0678C51.0071 66.773 51.0246 66.5186 51.0395 66.3046C51.0545 66.0859 51.0645 65.9409 51.0695 65.8696H51.0096L45.9363 73.8574H43.1453V63.4305ZM51.9599 60C51.905 60.504 51.7554 60.9485 51.5109 61.3337C51.2665 61.7188 50.8849 62.0183 50.3661 62.2323C49.8473 62.4463 49.1489 62.5532 48.2709 62.5532C47.368 62.5532 46.6646 62.451 46.1608 62.2466C45.657 62.0374 45.2978 61.7426 45.0833 61.3622C44.8688 60.9771 44.7391 60.523 44.6942 60H46.737C46.7819 60.5373 46.924 60.8939 47.1635 61.0698C47.4029 61.241 47.787 61.3265 48.3158 61.3265C48.7548 61.3265 49.114 61.2314 49.3933 61.0413C49.6727 60.8511 49.8398 60.504 49.8947 60H51.9599Z" fill="#004589"/>
<path fill-rule="evenodd" clip-rule="evenodd" d="M53.0012 41.2219C51.0728 48.01 44.8306 52.9997 37.4252 52.9997H20.6123V41.2219H53.0012Z" fill="#F07C00"/>
<path fill-rule="evenodd" clip-rule="evenodd" d="M0 36.8056C0 32.8933 1.37022 29.2995 3.68061 26.5C1.36224 23.6982 0 20.1142 0 16.1945C0 7.25205 7.252 0 16.1944 0H52.9999V11.7778H16.1944C13.7556 11.7778 11.7778 13.7556 11.7778 16.1945C11.7778 18.6333 13.7556 20.6111 16.1944 20.6111H52.9999V32.3889H16.1944C13.7556 32.3889 11.7778 34.3667 11.7778 36.8056V53H0V36.8056Z" fill="#004589"/>
</g>
<defs>
<clipPath id="clip0_7_1402">
<rect width="54" height="74" fill="white"/>
</clipPath>
</defs>
</svg>
